<svg width="32" height="32" viewBox="0 0 32 32" fill="none" xmlns="http://www.w3.org/2000/svg">
<path d="M13.7617 17.981C10.2437 17.981 11.2021 17.9302 9.22346 21.8875L7.84385 24.8863C7.57882 26.2623 7.18672 26.0699 4.40934 26.2696C3.89743 26.3059 3.34558 26.4801 3.34558 25.6778C3.34558 23.7536 4.97933 25.5035 6.02857 22.639C6.66755 20.8891 14.7347 7.8263 13.8016 5.25586C13.4785 4.36637 12.687 3.3716 15.0832 2.6346C16.1179 2.31511 16.8113 3.78548 17.1962 4.56606C19.3128 8.85375 24.5807 20.526 27.5723 23.6229C30.2263 26.3749 27.3835 25.8521 25.6009 25.518C23.3827 25.1005 24.4101 24.7593 22.3262 20.7838C20.9756 18.2097 21.2007 18.3186 17.1962 18.1008L13.7617 17.981ZM12.8141 16.1657H19.959L15.9727 8.21477C15.5189 7.87713 15.341 9.21318 15.0251 9.85216L12.1461 15.8898L12.8141 16.1657Z" fill="black"/>
</svg>
