<svg width="20" height="19" viewBox="0 0 20 19" fill="none" xmlns="http://www.w3.org/2000/svg">
<path d="M9.6631 0.0736498C9.54545 0.110837 9.39572 0.201154 9.32086 0.270219C9.24599 0.339286 8.60963 1.55059 7.8877 3.00627C6.88235 5.02511 6.55615 5.63608 6.45989 5.67858C6.39572 5.70514 5.14439 5.8964 3.68984 6.10359C2.23529 6.31079 0.935829 6.50205 0.802139 6.53393C0.358289 6.63487 0.00534759 7.04395 0 7.45303C0 7.89398 0.0267379 7.92586 2.25668 10.0988C3.90374 11.7085 4.38503 12.2026 4.38503 12.3035C4.38503 12.3726 4.16578 13.6955 3.8984 15.2362C3.35294 18.4026 3.35829 18.3122 3.74332 18.6948C3.97861 18.9285 4.30481 19.0401 4.59358 18.987C4.70053 18.9657 5.94652 18.3441 7.36898 17.6003C8.7861 16.8566 9.97326 16.2509 10.0053 16.2509C10.0321 16.2509 11.2193 16.8566 12.6364 17.6003C14.0535 18.3441 15.2995 18.9657 15.4064 18.987C15.6952 19.0401 16.0214 18.9285 16.2567 18.6948C16.6417 18.3122 16.6471 18.4026 16.1016 15.2415C15.8342 13.7008 15.615 12.3779 15.615 12.3089C15.615 12.2026 16.0535 11.7457 17.7112 10.136C19.8663 8.03743 20 7.88336 20 7.4849C20 7.1077 19.6952 6.68799 19.3369 6.56049C19.246 6.52861 15.6578 5.99734 14.0909 5.78483C13.8556 5.75295 13.6043 5.69983 13.5401 5.67326C13.4385 5.63608 13.123 5.03574 12.1123 3.00627C10.738 0.238343 10.6952 0.163964 10.2781 0.0470861C10.0214 -0.0219809 9.91444 -0.016667 9.6631 0.0736498Z" fill="black"/>
</svg>
