<svg width="20" height="20" viewBox="0 0 20 20" fill="none" xmlns="http://www.w3.org/2000/svg">
<path opacity="0.9" d="M12.6251 15.7053C16.5535 12.3712 19.1488 10.1685 18.9934 6.87367C18.9336 5.60495 18.4227 4.40198 17.555 3.48626C16.6562 2.53771 15.472 2.00995 14.2206 2.00014C13.0249 1.9911 11.9724 2.42729 11.0919 3.29758C11.0055 3.38299 10.9231 3.47042 10.8445 3.55915C10.7474 3.66882 10.6562 3.78047 10.5706 3.89277C10.3238 4.2166 10.1239 4.5458 9.96492 4.84811C9.80596 4.5458 9.60606 4.2166 9.35926 3.89277C9.33962 3.867 9.31969 3.84126 9.29945 3.81558C9.16015 3.63876 9.00663 3.46433 8.83792 3.29758C7.95736 2.42732 6.90418 1.99124 5.70926 2.00014C4.45963 2.00991 3.28639 2.53929 2.40573 3.49076C1.56353 4.40061 1.06666 5.602 1.00669 6.87367C0.849749 10.2007 3.46889 12.4326 7.43346 15.811C8.13036 16.4048 8.85115 17.019 9.61768 17.6897L9.96492 17.9936L10.3122 17.6897C11.124 16.9794 11.8857 16.3329 12.6223 15.7077L12.6251 15.7053Z" fill="black"/>
</svg>
