<svg width="20" height="20" viewBox="0 0 20 20" fill="none" xmlns="http://www.w3.org/2000/svg">
<path fill-rule="evenodd" clip-rule="evenodd" d="M18.9934 6.87367C19.1488 10.1685 16.5535 12.3712 12.6251 15.7053L12.6223 15.7077C11.8857 16.3329 11.124 16.9794 10.3122 17.6897L9.96492 17.9936L9.61768 17.6897C8.85115 17.019 8.13036 16.4048 7.43346 15.811C3.46889 12.4326 0.849749 10.2007 1.00669 6.87367C1.06666 5.602 1.56353 4.40061 2.40573 3.49076C3.28639 2.53929 4.45963 2.00991 5.70926 2.00014C6.90418 1.99124 7.95736 2.42732 8.83792 3.29758C9.00663 3.46433 9.16015 3.63876 9.29945 3.81558C9.31969 3.84126 9.33962 3.867 9.35926 3.89277C9.60606 4.2166 9.80596 4.5458 9.96492 4.84811C10.1239 4.5458 10.3238 4.2166 10.5706 3.89277C10.6562 3.78047 10.7474 3.66882 10.8445 3.55915C10.9231 3.47042 11.0055 3.38299 11.0919 3.29758C11.9724 2.42729 13.0249 1.9911 14.2206 2.00014C15.472 2.00995 16.6562 2.53771 17.555 3.48626C18.4227 4.40198 18.9336 5.60495 18.9934 6.87367ZM11.9752 14.9453L11.9779 14.943C13.9671 13.2547 15.5154 11.9357 16.5645 10.6442C17.5838 9.38939 18.0571 8.24886 17.9945 6.92078C17.9459 5.88966 17.5308 4.91455 16.8291 4.17409C16.1081 3.41316 15.1793 3.00776 14.213 3.00011C13.8013 2.99703 13.4137 3.06045 13.0484 3.1934C12.5976 3.35744 12.1808 3.62735 11.7949 4.00878C11.3866 4.41238 11.076 4.88373 10.85 5.3135L9.96492 6.99686L9.07981 5.3135C8.85384 4.88373 8.54333 4.41244 8.13498 4.00883C7.43636 3.31839 6.63578 2.99336 5.7167 3.00011C4.75455 3.00774 3.84066 3.41263 3.13959 4.17006C2.46207 4.90199 2.05478 5.87761 2.00558 6.92079C1.94215 8.26537 2.42137 9.42162 3.45161 10.6937C4.51135 12.0022 6.07512 13.3396 8.08219 15.0499L8.08425 15.0517C8.68568 15.5642 9.30879 16.0952 9.96497 16.6657C10.6668 16.0558 11.3318 15.4914 11.9731 14.947L11.9752 14.9453Z" fill="#1A1714"/>
</svg>
