<svg width="16" height="13" viewBox="0 0 16 13" fill="none" xmlns="http://www.w3.org/2000/svg">
<path fill-rule="evenodd" clip-rule="evenodd" d="M15.0832 5.71788L15.1127 5.77402L15.2257 6L15.1134 6.2246L15.0832 6.28211C15.0649 6.31612 15.0384 6.36401 15.0035 6.42381C14.9338 6.54333 14.8304 6.7108 14.6919 6.9102C14.4154 7.30834 13.9963 7.83765 13.4224 8.3674C12.2721 9.42928 10.4897 10.5 7.99998 10.5C6.7834 10.5 5.73571 10.2443 4.84812 9.85898L2.35355 12.3535L1.64645 11.6464L3.91594 9.37695C3.40004 9.06487 2.95478 8.71566 2.5775 8.3674C2.00361 7.83765 1.58453 7.30834 1.30804 6.9102C1.16957 6.7108 1.0662 6.54333 0.996472 6.42381C0.961592 6.36401 0.935077 6.31612 0.916752 6.28211L0.886095 6.2236L0.774292 6L0.895366 5.75826C0.900466 5.74843 0.907588 5.73489 0.916752 5.71788C0.935077 5.68387 0.961592 5.63598 0.996472 5.57619C1.0662 5.45666 1.16957 5.2892 1.30804 5.0898C1.58453 4.69165 2.00361 4.16234 2.5775 3.6326C3.72787 2.57072 5.51027 1.5 7.99998 1.5C9.21657 1.5 10.2643 1.75566 11.1519 2.14103L12.9798 0.31311L13.6869 1.02022L12.084 2.62307C12.5999 2.93514 13.0452 3.28434 13.4224 3.6326C13.9963 4.16234 14.4154 4.69165 14.6919 5.0898C14.8304 5.2892 14.9338 5.45666 15.0035 5.57619C15.0384 5.63598 15.0649 5.68387 15.0832 5.71788ZM2.12941 6.3398C2.03704 6.20678 1.96338 6.09131 1.90793 6C1.96338 5.90869 2.03704 5.79321 2.12941 5.6602C2.37375 5.30834 2.74634 4.83765 3.25578 4.3674C4.27208 3.42928 5.82301 2.5 7.99998 2.5C8.89871 2.5 9.69074 2.65838 10.3825 2.91038L9.37868 3.9142C8.98347 3.65244 8.50952 3.5 7.99998 3.5C6.61926 3.5 5.49998 4.61929 5.49998 6C5.49998 6.50954 5.65242 6.98349 5.91418 7.37871L4.64725 8.64564C4.10326 8.34267 3.64109 7.98827 3.25578 7.6326C2.74634 7.16234 2.37375 6.69165 2.12941 6.3398ZM7.99998 4.5C7.17155 4.5 6.49998 5.17157 6.49998 6C6.49998 6.23158 6.55245 6.4509 6.64617 6.64672L8.6467 4.64619C8.45088 4.55248 8.23156 4.5 7.99998 4.5ZM9.49998 6C9.49998 6.82842 8.8284 7.5 7.99998 7.5C7.76841 7.5 7.5491 7.44752 7.35328 7.35382L9.3538 5.35331C9.4475 5.54912 9.49998 5.76843 9.49998 6ZM7.99998 9.5C10.1769 9.5 11.7279 8.57071 12.7442 7.6326C13.2536 7.16234 13.6262 6.69165 13.8705 6.3398C13.9629 6.20679 14.0366 6.09131 14.092 5.99999C14.0366 5.90868 13.9629 5.79321 13.8705 5.6602C13.6262 5.30834 13.2536 4.83765 12.7442 4.3674C12.3589 4.01173 11.8967 3.65734 11.3527 3.35437L10.0858 4.62132C10.3475 5.01653 10.5 5.49046 10.5 6C10.5 7.38071 9.38069 8.5 7.99998 8.5C7.49044 8.5 7.01651 8.34756 6.62129 8.08581L5.61747 9.08963C6.30923 9.34162 7.10126 9.5 7.99998 9.5Z" fill="#868383"/>
</svg>
