<svg width="16" height="10" viewBox="0 0 16 10" fill="none" xmlns="http://www.w3.org/2000/svg">
<path fill-rule="evenodd" clip-rule="evenodd" d="M7.99998 3.5C7.17155 3.5 6.49998 4.17157 6.49998 5C6.49998 5.82843 7.17155 6.5 7.99998 6.5C8.8284 6.5 9.49998 5.82843 9.49998 5C9.49998 4.17157 8.8284 3.5 7.99998 3.5ZM5.49998 5C5.49998 3.61929 6.61926 2.5 7.99998 2.5C9.38069 2.5 10.5 3.61929 10.5 5C10.5 6.38071 9.38069 7.5 7.99998 7.5C6.61926 7.5 5.49998 6.38071 5.49998 5Z" fill="#868383"/>
<path fill-rule="evenodd" clip-rule="evenodd" d="M15.1127 4.77403L15.0832 4.71788C15.0649 4.68388 15.0384 4.63598 15.0035 4.57619C14.9338 4.45666 14.8304 4.2892 14.6919 4.0898C14.4154 3.69166 13.9963 3.16234 13.4224 2.6326C12.2721 1.57072 10.4897 0.5 7.99998 0.5C5.51027 0.5 3.72787 1.57072 2.5775 2.6326C2.00361 3.16234 1.58453 3.69166 1.30804 4.0898C1.16957 4.2892 1.0662 4.45666 0.996472 4.57619C0.961592 4.63598 0.935077 4.68388 0.916752 4.71788C0.907588 4.73489 0.900466 4.74843 0.895366 4.75826L0.774292 5L0.886095 5.22361L0.916752 5.28212C0.935077 5.31612 0.961592 5.36402 0.996472 5.42381C1.0662 5.54334 1.16957 5.7108 1.30804 5.9102C1.58453 6.30834 2.00361 6.83766 2.5775 7.3674C3.72787 8.42928 5.51027 9.5 7.99998 9.5C10.4897 9.5 12.2721 8.42928 13.4224 7.3674C13.9963 6.83766 14.4154 6.30834 14.6919 5.9102C14.8304 5.7108 14.9338 5.54334 15.0035 5.42381C15.0384 5.36402 15.0649 5.31612 15.0832 5.28212L15.1134 5.22461L15.2257 5L15.1127 4.77403ZM1.90793 5C1.96338 5.09131 2.03704 5.20679 2.12941 5.3398C2.37375 5.69166 2.74634 6.16234 3.25578 6.6326C4.27208 7.57072 5.82301 8.5 7.99998 8.5C10.1769 8.5 11.7279 7.57072 12.7442 6.6326C13.2536 6.16234 13.6262 5.69166 13.8705 5.3398C13.9629 5.20679 14.0366 5.09131 14.092 5C14.0366 4.90869 13.9629 4.79321 13.8705 4.6602C13.6262 4.30834 13.2536 3.83766 12.7442 3.3674C11.7279 2.42928 10.1769 1.5 7.99998 1.5C5.82301 1.5 4.27208 2.42928 3.25578 3.3674C2.74634 3.83766 2.37375 4.30834 2.12941 4.6602C2.03704 4.79321 1.96338 4.90869 1.90793 5Z" fill="#868383"/>
<path fill-rule="evenodd" clip-rule="evenodd" d="M5.49998 5C5.49998 3.61929 6.61926 2.5 7.99998 2.5C9.38069 2.5 10.5 3.61929 10.5 5C10.5 6.38071 9.38069 7.5 7.99998 7.5C6.61926 7.5 5.49998 6.38071 5.49998 5ZM7.99998 3.5C7.17155 3.5 6.49998 4.17157 6.49998 5C6.49998 5.82843 7.17155 6.5 7.99998 6.5C8.8284 6.5 9.49998 5.82843 9.49998 5C9.49998 4.17157 8.8284 3.5 7.99998 3.5Z" fill="#868383"/>
</svg>
