<svg width="16" height="16" viewBox="0 0 16 16" fill="none" xmlns="http://www.w3.org/2000/svg">
<path d="M1 12L1 11L3.06301 11C3.28503 10.1374 4.06808 9.5 5 9.5C5.93192 9.5 6.71497 10.1374 6.93699 11L15 11L15 12L6.93699 12C6.71497 12.8626 5.93192 13.5 5 13.5C4.06808 13.5 3.28503 12.8626 3.06301 12L1 12Z" fill="#4E4B4B"/>
<path d="M1 5L1 4L8.06301 4C8.28503 3.13739 9.06808 2.5 10 2.5C10.9319 2.5 11.715 3.13739 11.937 4L15 4L15 5L11.937 5C11.715 5.86261 10.9319 6.5 10 6.5C9.06808 6.5 8.28503 5.86261 8.06301 5L1 5Z" fill="#4E4B4B"/>
</svg>
