<svg width="16" height="16" viewBox="0 0 16 16" fill="none" xmlns="http://www.w3.org/2000/svg">
<path fill-rule="evenodd" clip-rule="evenodd" d="M4.5 4.50269C4.5 2.56969 6.067 1.00269 8 1.00269C9.933 1.00269 11.5 2.56969 11.5 4.50269C11.5 6.43568 9.933 8.00269 8 8.00269C6.067 8.00269 4.5 6.43568 4.5 4.50269ZM8 2.00269C6.61929 2.00269 5.5 3.12197 5.5 4.50269C5.5 5.8834 6.61929 7.00269 8 7.00269C9.38071 7.00269 10.5 5.8834 10.5 4.50269C10.5 3.12197 9.38071 2.00269 8 2.00269Z" fill="#4E4B4B"/>
<path fill-rule="evenodd" clip-rule="evenodd" d="M1 13.4987C1 11.0134 3.01472 8.99866 5.5 8.99866H10.5C12.9853 8.99866 15 11.0134 15 13.4987C15 14.3271 14.3284 14.9987 13.5 14.9987H2.5C1.67157 14.9987 1 14.3271 1 13.4987ZM5.5 9.99866C3.567 9.99866 2 11.5657 2 13.4987C2 13.7748 2.22386 13.9987 2.5 13.9987H13.5C13.7761 13.9987 14 13.7748 14 13.4987C14 11.5657 12.433 9.99866 10.5 9.99866H5.5Z" fill="#4E4B4B"/>
</svg>
