<svg width="16" height="16" viewBox="0 0 16 16" fill="none" xmlns="http://www.w3.org/2000/svg">
<path fill-rule="evenodd" clip-rule="evenodd" d="M1 8C1 11.866 4.13401 15 8 15C11.866 15 15 11.866 15 8C15 4.13401 11.866 1 8 1C4.13401 1 1 4.13401 1 8ZM8 0C3.58172 0 0 3.58172 0 8C0 12.4183 3.58172 16 8 16C12.4183 16 16 12.4183 16 8C16 3.58172 12.4183 0 8 0Z" fill="#0F6646"/>
<path fill-rule="evenodd" clip-rule="evenodd" d="M11.4287 5.25725L7.45878 11.8739L4.60957 8.31235L5.39043 7.68765L7.34122 10.1261L10.5713 4.74275L11.4287 5.25725Z" fill="#0F6646"/>
</svg>
